<?xml version="1.0" encoding="utf-8"?>
<!-- Generator: Adobe Illustrator 24.3.0, SVG Export Plug-In . SVG Version: 6.00 Build 0)  -->
<svg version="1.1" id="Layer_1" xmlns="http://www.w3.org/2000/svg" xmlns:xlink="http://www.w3.org/1999/xlink" x="0px" y="0px"
	 viewBox="0 0 774.8 263.2" style="enable-background:new 0 0 774.8 263.2;" xml:space="preserve">
<style type="text/css">
	.st0{fill:#FFFFFF;}
</style>
<path class="st0" d="M79,57.6C54.1,65,37.1,82.7,30.5,108c-3,11.6-9.5,53-9.5,60.5c0,18.3,6.3,31.4,19.1,39.6
	c5.9,3.8,17.9,8.3,19,7.2c0.9-0.9,4.9-11,4.9-12.3c0-0.5-2.4-1.5-5.2-2.4c-8.8-2.6-15.9-7.4-19.4-13.3c-5.7-9.6-5.8-17-0.3-49.3
	c2.2-13.3,5.1-27.3,6.4-31.1c5.3-15.8,16.5-27.5,31.6-33c5.6-2.1,5.6-2.1,8.8-9.7c1.7-4.2,3.1-8,3.1-8.5C89,54.7,88.6,54.8,79,57.6z
	"/>
<path class="st0" d="M157.5,75.1l-3.7,6l2.1,2.3c3.9,4.1,6.1,11.8,6.1,21.2c0,9.3-5.7,45.8-9.1,58.4c-6.5,24.1-24.1,37.3-54,40.5
	l-6.6,0.7l-5.2,6.9c-2.8,3.8-5.1,7.1-5.1,7.4c0,1,11.5,0.5,22.2-1c26.9-3.5,45.7-15.1,55.5-34.2c5.8-11.1,7.8-18.4,12.3-45.4
	c5.6-33.2,5.3-44.4-1.2-57.4c-2.4-4.7-7.6-11.5-8.8-11.5C161.5,69,159.5,71.7,157.5,75.1z"/>
<g>
	<path class="st0" d="M209.6,139.4h62.3l-3,14.3h-39.2l-1.7,7.9h36.4l-3,14.3H225l-1.7,7.9h39.2l-3,14.3h-62.3L209.6,139.4z"/>
	<path class="st0" d="M279.6,139.4h23.2l-9.1,42.9h35.9l-3.4,15.8h-59L279.6,139.4z"/>
	<path class="st0" d="M344.9,139.4h62.3l-3,14.3H365l-1.7,7.9h36.4l-3,14.3h-36.4l-1.7,7.9h39.2l-3,14.3h-62.3L344.9,139.4z"/>
	<path class="st0" d="M482.7,175.2c-3.1,7.7-7.1,14-13.7,18.2c-6.6,4.3-16,6.7-30.1,6.7c-14,0-39.9-1-33.4-31.4s32.7-31.4,46.7-31.4
		c14,0,35.1,1.8,33.2,25h-26.1c0.2-4.2-1.3-10.3-10.2-10.3c-9.4,0-16.4,4.7-19,16.6c-2.5,11.9,2.3,16.6,10.8,16.6
		c7.3,0,12.3-3,15.7-10.1H482.7z"/>
	<path class="st0" d="M510.8,154.2h-21.4l3.1-14.8h66l-3.1,14.8H534l-9.3,43.8h-23.2L510.8,154.2z"/>
	<path class="st0" d="M563.9,139.4h48.8c6.7,0,10.6,0.6,13.4,2.1c3.9,2.1,6.3,7.8,4.9,14.2c-1.2,5.5-4.7,11.4-11.9,13.4l0,0.2
		c3.2,1,5.4,3.9,4.7,9l-1.7,12.8c-0.3,2.6,0.3,5.1,1.4,6.9h-25.3c-0.5-1.7,0.1-4.3,1.1-11.1c0.7-4.4-0.2-7-4.5-7h-16.4l-3.8,18.1
		h-23.2L563.9,139.4z M581.5,165.2H598c4.5,0,6.8-1.8,7.6-5.5c0.9-4.4-1.7-5.5-5.6-5.5h-16.1L581.5,165.2z"/>
	<path class="st0" d="M643.1,139.4h23.2L653.8,198h-23.2L643.1,139.4z"/>
	<path class="st0" d="M745.7,175.2c-3.1,7.7-7.1,14-13.7,18.2c-6.6,4.3-16,6.7-30.1,6.7c-14,0-39.9-1-33.4-31.4s32.7-31.4,46.7-31.4
		c14,0,35.1,1.8,33.2,25h-26.1c0.2-4.2-1.3-10.3-10.2-10.3c-9.4,0-16.4,4.7-19,16.6c-2.5,11.9,2.3,16.6,10.8,16.6
		c7.3,0,12.3-3,15.7-10.1H745.7z"/>
</g>
<g>
	<path class="st0" d="M342.5,61.8l31,46.7h-18.7l-21.6-32.6l-21.6,32.6h-18.7l31-46.7l-31-46.7h18.7l21.7,32.6l21.7-32.6h18.7
		L342.5,61.8z"/>
	<path class="st0" d="M411.2,30.7V54h36.1v15.6h-36.1v38.9h-15.6V15.1h58.2v15.6H411.2z"/>
	<path class="st0" d="M664.3,108.5h-18.9l-26.8-38.9h-11.6v38.9h-15.6V15.1h40.2c14,0,25.7,10.6,27.1,24.5
		c1.4,13.9-8,26.6-21.6,29.4L664.3,108.5z M631.7,54c4.3,0.1,8.3-2.1,10.4-5.7c2.2-3.7,2.2-8.2,0-11.9c-2.2-3.7-6.2-5.9-10.4-5.7
		h-24.7V54L631.7,54z"/>
	<path class="st0" d="M713.7,15.1c25.8,0,46.7,20.9,46.7,46.7s-20.9,46.7-46.7,46.7h-27.3V15.1L713.7,15.1L713.7,15.1z M744.8,61.8
		c0-17.2-13.9-31.1-31.1-31.1H702V93h11.7C730.9,93,744.8,79,744.8,61.8z"/>
	<g>
		<path class="st0" d="M272.6,31L262,42.6c4.2,5.3,6.7,12,6.7,19.2c0,17.2-13.9,31.1-31.1,31.2c-17.2,0-31.1-13.9-31.1-31.2
			s13.9-31.1,31.1-31.1c5.4,0,10.5,1.4,14.9,3.8l7.5-13.7c-6.7-3.7-14.3-5.7-22.4-5.7c-25.8,0-46.7,20.9-46.7,46.7
			c0,25.8,20.9,46.7,46.7,46.7c25.8,0,46.7-20.9,46.7-46.7C284.2,50,279.9,39.3,272.6,31z"/>
	</g>
	<g>
		<path class="st0" d="M557.8,31.2l-10.6,11.6c4.1,5.3,6.6,11.9,6.6,19.1c0,17.2-14,31.1-31.1,31.2c-17.2,0-31.2-13.9-31.2-31.2
			s13.9-31.1,31.2-31.1c5.5,0,10.7,1.4,15.1,3.9l7.5-13.7c-6.7-3.7-14.4-5.8-22.6-5.8c-25.8,0-46.7,20.9-46.7,46.7
			c0,25.8,20.9,46.7,46.7,46.7c25.8,0,46.7-20.9,46.7-46.7C569.3,50.1,565,39.4,557.8,31.2z"/>
	</g>
</g>
<polygon class="st0" points="184.5,15.3 110,21.4 48.3,172.6 81.3,168.9 46.9,253.8 142.2,127.2 115.7,130.4 "/>
</svg>
